####
#
# OBJ File Generated by Meshlab
#
####
# Object cylinder.obj
#
# Vertices: 130
# Faces: 256
#
####
vn 0.000000 -1.000000 0.000000
v 0.000000 -0.500000 0.000000
vn 0.000000 1.000000 0.000000
v 0.000000 0.500000 0.000000
vn 0.948569 -0.316190 0.015533
v 0.500000 -0.500000 0.000000
vn 0.942479 -0.316190 0.108435
v 0.497592 -0.500000 0.049009
vn 0.927312 -0.316190 0.200291
v 0.490393 -0.500000 0.097545
vn 0.903215 -0.316190 0.290220
v 0.478470 -0.500000 0.145142
vn 0.870419 -0.316190 0.377352
v 0.461940 -0.500000 0.191342
vn 0.829241 -0.316190 0.460852
v 0.440961 -0.500000 0.235698
vn 0.780076 -0.316190 0.539912
v 0.415735 -0.500000 0.277785
vn 0.723399 -0.316190 0.613773
v 0.386505 -0.500000 0.317197
vn 0.659756 -0.316190 0.681723
v 0.353553 -0.500000 0.353553
vn 0.589758 -0.316190 0.743108
v 0.317197 -0.500000 0.386505
vn 0.514081 -0.316190 0.797336
v 0.277785 -0.500000 0.415735
vn 0.433453 -0.316190 0.843886
v 0.235698 -0.500000 0.440961
vn 0.348651 -0.316190 0.882308
v 0.191342 -0.500000 0.461940
vn 0.260490 -0.316190 0.912233
v 0.145142 -0.500000 0.478470
vn 0.169822 -0.316190 0.933373
v 0.097545 -0.500000 0.490393
vn 0.077518 -0.316190 0.945524
v 0.049009 -0.500000 0.497592
vn -0.015533 -0.316190 0.948569
v 0.000000 -0.500000 0.500000
vn -0.108435 -0.316190 0.942479
v -0.049009 -0.500000 0.497592
vn -0.200291 -0.316190 0.927312
v -0.097545 -0.500000 0.490393
vn -0.290220 -0.316190 0.903215
v -0.145142 -0.500000 0.478470
vn -0.377352 -0.316190 0.870419
v -0.191342 -0.500000 0.461940
vn -0.460852 -0.316190 0.829241
v -0.235698 -0.500000 0.440961
vn -0.539912 -0.316190 0.780076
v -0.277785 -0.500000 0.415735
vn -0.613773 -0.316190 0.723399
v -0.317197 -0.500000 0.386505
vn -0.681723 -0.316190 0.659756
v -0.353553 -0.500000 0.353553
vn -0.743108 -0.316190 0.589758
v -0.386505 -0.500000 0.317197
vn -0.797336 -0.316190 0.514081
v -0.415735 -0.500000 0.277785
vn -0.843886 -0.316190 0.433453
v -0.440961 -0.500000 0.235698
vn -0.882308 -0.316190 0.348651
v -0.461940 -0.500000 0.191342
vn -0.912233 -0.316190 0.260490
v -0.478470 -0.500000 0.145142
vn -0.933373 -0.316190 0.169822
v -0.490393 -0.500000 0.097545
vn -0.945524 -0.316190 0.077518
v -0.497592 -0.500000 0.049009
vn -0.948569 -0.316190 -0.015533
v -0.500000 -0.500000 0.000000
vn -0.942479 -0.316190 -0.108435
v -0.497592 -0.500000 -0.049009
vn -0.927312 -0.316190 -0.200291
v -0.490393 -0.500000 -0.097545
vn -0.903215 -0.316190 -0.290220
v -0.478470 -0.500000 -0.145142
vn -0.870419 -0.316190 -0.377352
v -0.461940 -0.500000 -0.191342
vn -0.829241 -0.316190 -0.460852
v -0.440961 -0.500000 -0.235698
vn -0.780076 -0.316190 -0.539912
v -0.415735 -0.500000 -0.277785
vn -0.723399 -0.316190 -0.613773
v -0.386505 -0.500000 -0.317197
vn -0.659756 -0.316190 -0.681723
v -0.353553 -0.500000 -0.353553
vn -0.589758 -0.316190 -0.743108
v -0.317197 -0.500000 -0.386505
vn -0.514081 -0.316190 -0.797336
v -0.277785 -0.500000 -0.415735
vn -0.433453 -0.316190 -0.843886
v -0.235698 -0.500000 -0.440961
vn -0.348651 -0.316190 -0.882308
v -0.191342 -0.500000 -0.461940
vn -0.260490 -0.316190 -0.912233
v -0.145142 -0.500000 -0.478470
vn -0.169822 -0.316190 -0.933373
v -0.097545 -0.500000 -0.490393
vn -0.077518 -0.316190 -0.945524
v -0.049009 -0.500000 -0.497592
vn 0.015533 -0.316190 -0.948569
v -0.000000 -0.500000 -0.500000
vn 0.108435 -0.316190 -0.942479
v 0.049009 -0.500000 -0.497592
vn 0.200291 -0.316190 -0.927312
v 0.097545 -0.500000 -0.490393
vn 0.290220 -0.316190 -0.903215
v 0.145142 -0.500000 -0.478470
vn 0.377352 -0.316190 -0.870419
v 0.191342 -0.500000 -0.461940
vn 0.460852 -0.316190 -0.829241
v 0.235698 -0.500000 -0.440961
vn 0.539912 -0.316190 -0.780076
v 0.277785 -0.500000 -0.415735
vn 0.613773 -0.316190 -0.723399
v 0.317197 -0.500000 -0.386505
vn 0.681723 -0.316190 -0.659756
v 0.353553 -0.500000 -0.353553
vn 0.743108 -0.316190 -0.589758
v 0.386505 -0.500000 -0.317197
vn 0.797336 -0.316190 -0.514081
v 0.415735 -0.500000 -0.277785
vn 0.843886 -0.316190 -0.433453
v 0.440961 -0.500000 -0.235698
vn 0.882308 -0.316190 -0.348651
v 0.461940 -0.500000 -0.191342
vn 0.912233 -0.316190 -0.260490
v 0.478470 -0.500000 -0.145142
vn 0.933373 -0.316190 -0.169822
v 0.490393 -0.500000 -0.097545
vn 0.945524 -0.316190 -0.077518
v 0.497592 -0.500000 -0.049009
vn 0.948569 0.316190 -0.015533
v 0.500000 0.500000 0.000000
vn 0.945524 0.316190 0.077518
v 0.497592 0.500000 0.049009
vn 0.933373 0.316190 0.169822
v 0.490393 0.500000 0.097545
vn 0.912233 0.316190 0.260490
v 0.478470 0.500000 0.145142
vn 0.882308 0.316190 0.348651
v 0.461940 0.500000 0.191342
vn 0.843886 0.316190 0.433453
v 0.440961 0.500000 0.235698
vn 0.797336 0.316190 0.514081
v 0.415735 0.500000 0.277785
vn 0.743108 0.316190 0.589758
v 0.386505 0.500000 0.317197
vn 0.681723 0.316190 0.659756
v 0.353553 0.500000 0.353553
vn 0.613773 0.316190 0.723399
v 0.317197 0.500000 0.386505
vn 0.539912 0.316190 0.780076
v 0.277785 0.500000 0.415735
vn 0.460852 0.316190 0.829241
v 0.235698 0.500000 0.440961
vn 0.377352 0.316190 0.870419
v 0.191342 0.500000 0.461940
vn 0.290220 0.316190 0.903215
v 0.145142 0.500000 0.478470
vn 0.200291 0.316190 0.927312
v 0.097545 0.500000 0.490393
vn 0.108435 0.316190 0.942479
v 0.049009 0.500000 0.497592
vn 0.015533 0.316190 0.948569
v 0.000000 0.500000 0.500000
vn -0.077518 0.316190 0.945524
v -0.049009 0.500000 0.497592
vn -0.169822 0.316190 0.933373
v -0.097545 0.500000 0.490393
vn -0.260490 0.316190 0.912233
v -0.145142 0.500000 0.478470
vn -0.348651 0.316190 0.882308
v -0.191342 0.500000 0.461940
vn -0.433453 0.316190 0.843886
v -0.235698 0.500000 0.440961
vn -0.514081 0.316190 0.797336
v -0.277785 0.500000 0.415735
vn -0.589758 0.316190 0.743108
v -0.317197 0.500000 0.386505
vn -0.659756 0.316190 0.681723
v -0.353553 0.500000 0.353553
vn -0.723399 0.316190 0.613773
v -0.386505 0.500000 0.317197
vn -0.780076 0.316190 0.539912
v -0.415735 0.500000 0.277785
vn -0.829241 0.316190 0.460852
v -0.440961 0.500000 0.235698
vn -0.870419 0.316190 0.377352
v -0.461940 0.500000 0.191342
vn -0.903215 0.316190 0.290220
v -0.478470 0.500000 0.145142
vn -0.927312 0.316190 0.200291
v -0.490393 0.500000 0.097545
vn -0.942479 0.316190 0.108435
v -0.497592 0.500000 0.049009
vn -0.948569 0.316190 0.015533
v -0.500000 0.500000 0.000000
vn -0.945524 0.316190 -0.077518
v -0.497592 0.500000 -0.049009
vn -0.933373 0.316190 -0.169822
v -0.490393 0.500000 -0.097545
vn -0.912233 0.316190 -0.260490
v -0.478470 0.500000 -0.145142
vn -0.882308 0.316190 -0.348651
v -0.461940 0.500000 -0.191342
vn -0.843886 0.316190 -0.433453
v -0.440961 0.500000 -0.235698
vn -0.797336 0.316190 -0.514081
v -0.415735 0.500000 -0.277785
vn -0.743108 0.316190 -0.589758
v -0.386505 0.500000 -0.317197
vn -0.681723 0.316190 -0.659756
v -0.353553 0.500000 -0.353553
vn -0.613773 0.316190 -0.723399
v -0.317197 0.500000 -0.386505
vn -0.539912 0.316190 -0.780076
v -0.277785 0.500000 -0.415735
vn -0.460852 0.316190 -0.829241
v -0.235698 0.500000 -0.440961
vn -0.377352 0.316190 -0.870419
v -0.191342 0.500000 -0.461940
vn -0.290220 0.316190 -0.903215
v -0.145142 0.500000 -0.478470
vn -0.200291 0.316190 -0.927312
v -0.097545 0.500000 -0.490393
vn -0.108435 0.316190 -0.942479
v -0.049009 0.500000 -0.497592
vn -0.015533 0.316190 -0.948569
v -0.000000 0.500000 -0.500000
vn 0.077518 0.316190 -0.945524
v 0.049009 0.500000 -0.497592
vn 0.169822 0.316190 -0.933373
v 0.097545 0.500000 -0.490393
vn 0.260490 0.316190 -0.912233
v 0.145142 0.500000 -0.478470
vn 0.348651 0.316190 -0.882308
v 0.191342 0.500000 -0.461940
vn 0.433453 0.316190 -0.843886
v 0.235698 0.500000 -0.440961
vn 0.514081 0.316190 -0.797336
v 0.277785 0.500000 -0.415735
vn 0.589758 0.316190 -0.743108
v 0.317197 0.500000 -0.386505
vn 0.659756 0.316190 -0.681723
v 0.353553 0.500000 -0.353553
vn 0.723399 0.316190 -0.613773
v 0.386505 0.500000 -0.317197
vn 0.780076 0.316190 -0.539912
v 0.415735 0.500000 -0.277785
vn 0.829241 0.316190 -0.460852
v 0.440961 0.500000 -0.235698
vn 0.870419 0.316190 -0.377352
v 0.461940 0.500000 -0.191342
vn 0.903215 0.316190 -0.290220
v 0.478470 0.500000 -0.145142
vn 0.927312 0.316190 -0.200291
v 0.490393 0.500000 -0.097545
vn 0.942479 0.316190 -0.108435
v 0.497592 0.500000 -0.049009
# 130 vertices, 0 vertices normals

f 1//1 3//3 4//4
f 1//1 4//4 5//5
f 1//1 5//5 6//6
f 1//1 6//6 7//7
f 1//1 7//7 8//8
f 1//1 8//8 9//9
f 1//1 9//9 10//10
f 1//1 10//10 11//11
f 1//1 11//11 12//12
f 1//1 12//12 13//13
f 1//1 13//13 14//14
f 1//1 14//14 15//15
f 1//1 15//15 16//16
f 1//1 16//16 17//17
f 1//1 17//17 18//18
f 1//1 18//18 19//19
f 1//1 19//19 20//20
f 1//1 20//20 21//21
f 1//1 21//21 22//22
f 1//1 22//22 23//23
f 1//1 23//23 24//24
f 1//1 24//24 25//25
f 1//1 25//25 26//26
f 1//1 26//26 27//27
f 1//1 27//27 28//28
f 1//1 28//28 29//29
f 1//1 29//29 30//30
f 1//1 30//30 31//31
f 1//1 31//31 32//32
f 1//1 32//32 33//33
f 1//1 33//33 34//34
f 1//1 34//34 35//35
f 1//1 35//35 36//36
f 1//1 36//36 37//37
f 1//1 37//37 38//38
f 1//1 38//38 39//39
f 1//1 39//39 40//40
f 1//1 40//40 41//41
f 1//1 41//41 42//42
f 1//1 42//42 43//43
f 1//1 43//43 44//44
f 1//1 44//44 45//45
f 1//1 45//45 46//46
f 1//1 46//46 47//47
f 1//1 47//47 48//48
f 1//1 48//48 49//49
f 1//1 49//49 50//50
f 1//1 50//50 51//51
f 1//1 51//51 52//52
f 1//1 52//52 53//53
f 1//1 53//53 54//54
f 1//1 54//54 55//55
f 1//1 55//55 56//56
f 1//1 56//56 57//57
f 1//1 57//57 58//58
f 1//1 58//58 59//59
f 1//1 59//59 60//60
f 1//1 60//60 61//61
f 1//1 61//61 62//62
f 1//1 62//62 63//63
f 1//1 63//63 64//64
f 1//1 64//64 65//65
f 1//1 65//65 66//66
f 1//1 66//66 3//3
f 2//2 68//68 67//67
f 2//2 69//69 68//68
f 2//2 70//70 69//69
f 2//2 71//71 70//70
f 2//2 72//72 71//71
f 2//2 73//73 72//72
f 2//2 74//74 73//73
f 2//2 75//75 74//74
f 2//2 76//76 75//75
f 2//2 77//77 76//76
f 2//2 78//78 77//77
f 2//2 79//79 78//78
f 2//2 80//80 79//79
f 2//2 81//81 80//80
f 2//2 82//82 81//81
f 2//2 83//83 82//82
f 2//2 84//84 83//83
f 2//2 85//85 84//84
f 2//2 86//86 85//85
f 2//2 87//87 86//86
f 2//2 88//88 87//87
f 2//2 89//89 88//88
f 2//2 90//90 89//89
f 2//2 91//91 90//90
f 2//2 92//92 91//91
f 2//2 93//93 92//92
f 2//2 94//94 93//93
f 2//2 95//95 94//94
f 2//2 96//96 95//95
f 2//2 97//97 96//96
f 2//2 98//98 97//97
f 2//2 99//99 98//98
f 2//2 100//100 99//99
f 2//2 101//101 100//100
f 2//2 102//102 101//101
f 2//2 103//103 102//102
f 2//2 104//104 103//103
f 2//2 105//105 104//104
f 2//2 106//106 105//105
f 2//2 107//107 106//106
f 2//2 108//108 107//107
f 2//2 109//109 108//108
f 2//2 110//110 109//109
f 2//2 111//111 110//110
f 2//2 112//112 111//111
f 2//2 113//113 112//112
f 2//2 114//114 113//113
f 2//2 115//115 114//114
f 2//2 116//116 115//115
f 2//2 117//117 116//116
f 2//2 118//118 117//117
f 2//2 119//119 118//118
f 2//2 120//120 119//119
f 2//2 121//121 120//120
f 2//2 122//122 121//121
f 2//2 123//123 122//122
f 2//2 124//124 123//123
f 2//2 125//125 124//124
f 2//2 126//126 125//125
f 2//2 127//127 126//126
f 2//2 128//128 127//127
f 2//2 129//129 128//128
f 2//2 130//130 129//129
f 2//2 67//67 130//130
f 3//3 67//67 68//68
f 3//3 68//68 4//4
f 4//4 68//68 69//69
f 4//4 69//69 5//5
f 5//5 69//69 70//70
f 5//5 70//70 6//6
f 6//6 70//70 71//71
f 6//6 71//71 7//7
f 7//7 71//71 72//72
f 7//7 72//72 8//8
f 8//8 72//72 73//73
f 8//8 73//73 9//9
f 9//9 73//73 74//74
f 9//9 74//74 10//10
f 10//10 74//74 75//75
f 10//10 75//75 11//11
f 11//11 75//75 76//76
f 11//11 76//76 12//12
f 12//12 76//76 77//77
f 12//12 77//77 13//13
f 13//13 77//77 78//78
f 13//13 78//78 14//14
f 14//14 78//78 79//79
f 14//14 79//79 15//15
f 15//15 79//79 80//80
f 15//15 80//80 16//16
f 16//16 80//80 81//81
f 16//16 81//81 17//17
f 17//17 81//81 82//82
f 17//17 82//82 18//18
f 18//18 82//82 83//83
f 18//18 83//83 19//19
f 19//19 83//83 84//84
f 19//19 84//84 20//20
f 20//20 84//84 85//85
f 20//20 85//85 21//21
f 21//21 85//85 86//86
f 21//21 86//86 22//22
f 22//22 86//86 87//87
f 22//22 87//87 23//23
f 23//23 87//87 88//88
f 23//23 88//88 24//24
f 24//24 88//88 89//89
f 24//24 89//89 25//25
f 25//25 89//89 90//90
f 25//25 90//90 26//26
f 26//26 90//90 91//91
f 26//26 91//91 27//27
f 27//27 91//91 92//92
f 27//27 92//92 28//28
f 28//28 92//92 93//93
f 28//28 93//93 29//29
f 29//29 93//93 94//94
f 29//29 94//94 30//30
f 30//30 94//94 95//95
f 30//30 95//95 31//31
f 31//31 95//95 96//96
f 31//31 96//96 32//32
f 32//32 96//96 97//97
f 32//32 97//97 33//33
f 33//33 97//97 98//98
f 33//33 98//98 34//34
f 34//34 98//98 99//99
f 34//34 99//99 35//35
f 35//35 99//99 100//100
f 35//35 100//100 36//36
f 36//36 100//100 101//101
f 36//36 101//101 37//37
f 37//37 101//101 102//102
f 37//37 102//102 38//38
f 38//38 102//102 103//103
f 38//38 103//103 39//39
f 39//39 103//103 104//104
f 39//39 104//104 40//40
f 40//40 104//104 105//105
f 40//40 105//105 41//41
f 41//41 105//105 106//106
f 41//41 106//106 42//42
f 42//42 106//106 107//107
f 42//42 107//107 43//43
f 43//43 107//107 108//108
f 43//43 108//108 44//44
f 44//44 108//108 109//109
f 44//44 109//109 45//45
f 45//45 109//109 110//110
f 45//45 110//110 46//46
f 46//46 110//110 111//111
f 46//46 111//111 47//47
f 47//47 111//111 112//112
f 47//47 112//112 48//48
f 48//48 112//112 113//113
f 48//48 113//113 49//49
f 49//49 113//113 114//114
f 49//49 114//114 50//50
f 50//50 114//114 115//115
f 50//50 115//115 51//51
f 51//51 115//115 116//116
f 51//51 116//116 52//52
f 52//52 116//116 117//117
f 52//52 117//117 53//53
f 53//53 117//117 118//118
f 53//53 118//118 54//54
f 54//54 118//118 119//119
f 54//54 119//119 55//55
f 55//55 119//119 120//120
f 55//55 120//120 56//56
f 56//56 120//120 121//121
f 56//56 121//121 57//57
f 57//57 121//121 122//122
f 57//57 122//122 58//58
f 58//58 122//122 123//123
f 58//58 123//123 59//59
f 59//59 123//123 124//124
f 59//59 124//124 60//60
f 60//60 124//124 125//125
f 60//60 125//125 61//61
f 61//61 125//125 126//126
f 61//61 126//126 62//62
f 62//62 126//126 127//127
f 62//62 127//127 63//63
f 63//63 127//127 128//128
f 63//63 128//128 64//64
f 64//64 128//128 129//129
f 64//64 129//129 65//65
f 65//65 129//129 130//130
f 65//65 130//130 66//66
f 66//66 130//130 67//67
f 66//66 67//67 3//3
# 256 faces, 0 coords texture

# End of File
